<svg width="22pt" height="21pt" viewBox="0 0 22 21" xmlns="http://www.w3.org/2000/svg"><g id="fontsvg1677329014847" stroke-linecap="round" fill-rule="evenodd" fill="#000000"><path d="M 0 19.98 L 0 0 L 12.15 0 L 12.15 3.78 L 4.29 3.78 L 4.29 7.77 L 10.8 7.77 L 10.8 11.43 L 4.29 11.43 L 4.29 16.2 L 12.15 16.2 L 12.15 19.98 L 0 19.98 Z M 13.41 19.8 L 14.55 16.17 A 5.217 5.217 0 0 0 15.131 16.438 Q 15.682 16.65 16.14 16.65 A 1.709 1.709 0 0 0 16.796 16.534 Q 17.536 16.228 17.627 15.117 A 4.012 4.012 0 0 0 17.64 14.79 L 17.64 0 L 21.84 0 L 21.84 15.15 A 6.691 6.691 0 0 1 21.648 16.799 A 4.684 4.684 0 0 1 20.415 19.005 A 4.762 4.762 0 0 1 17.863 20.317 A 6.866 6.866 0 0 1 16.59 20.43 A 8.345 8.345 0 0 1 14.534 20.184 A 7.228 7.228 0 0 1 13.41 19.8 Z" vector-effect="non-scaling-stroke"/></g></svg>